<?xml version="1.0" encoding="UTF-8"?>
<svg xmlns="http://www.w3.org/2000/svg" xmlns:se="https://standardebooks.org/vocab/1.0" version="1.1" viewBox="0 0 1400 770" se:generated-from="2b977b996dfc0012a7e4b262523b36bce7155f8c">
	<path d="M 325.78191,65.711609 344.44895,65.711609 344.44895,128.57001 362.35407,128.57001 362.35407,65.711609 381.02111,65.711609 381.02111,49.997009 325.78191,49.997009 325.78191,65.711609 Z"/>
	<path d="M 410.37427,97.045568 435.70811,97.045568 435.70811,128.57001 453.61323,128.57001 453.61323,49.997009 435.70811,49.997009 435.70811,81.330968 410.37427,81.330968 410.37427,49.997009 392.46915,49.997009 392.46915,128.57001 410.37427,128.57001 410.37427,97.045568 Z"/>
	<path d="M 514.96852,49.997009 470.01524,49.997009 470.01524,128.57001 514.96852,128.57001 514.96852,112.85541 487.92036,112.85541 487.92036,97.045568 513.82564,97.045568 513.82564,81.330968 487.92036,81.330968 487.92036,65.711609 514.96852,65.711609 514.96852,49.997009 Z"/>
	<path d="M 561.30406,49.997009 561.30406,128.57001 579.20918,128.57001 579.20918,97.521768 603.20966,128.57001 625.97202,128.57001 598.92386,96.093168 C 608.5431,93.045488 615.01942,85.140568 615.01942,73.330809 615.01942,57.901929 603.97158,49.997009 589.39986,49.997009 L 561.30406,49.997009 Z M 579.20918,84.854848 579.20918,64.283009 581.30446,64.283009 C 588.0665,64.283009 596.1619,64.759209 596.1619,74.568929 596.1619,84.378648 588.0665,84.854848 581.30446,84.854848 L 579.20918,84.854848 Z"/>
	<path d="M 694.95395,49.997009 677.04883,49.997009 677.04883,95.426488 C 677.04883,108.56961 673.04875,112.37921 664.28667,112.37921 655.52459,112.37921 651.52451,108.56961 651.52451,95.426488 L 651.52451,49.997009 633.61939,49.997009 633.61939,100.66469 C 633.61939,120.09365 644.28627,129.99861 664.28667,129.99861 684.28707,129.99861 694.95395,120.09365 694.95395,100.66469 L 694.95395,49.997009 Z"/>
	<path d="M 710.44374,49.997009 710.44374,128.57001 740.25386,128.57001 C 756.5399,128.57001 765.96866,119.61745 765.96866,106.66481 765.96866,93.997888 759.01614,88.569208 749.20642,86.854888 755.87322,83.426248 759.01614,77.235648 759.01614,69.997409 759.01614,55.044729 748.34926,49.997009 734.82518,49.997009 L 710.44374,49.997009 Z M 728.34886,80.759528 728.34886,63.806809 729.77746,63.806809 C 737.58714,63.806809 741.68246,66.187809 741.68246,71.806969 741.68246,78.378528 737.4919,80.759528 729.77746,80.759528 L 728.34886,80.759528 Z M 728.34886,114.76021 728.34886,96.188408 733.96802,96.188408 C 742.44438,96.188408 747.11114,98.759888 747.11114,105.99813 747.11114,112.18873 742.44438,114.76021 733.96802,114.76021 L 728.34886,114.76021 Z"/>
	<path d="M 803.01543,35.615769 808.34887,42.949249 831.01599,29.80613 822.34915,18.85353 803.01543,35.615769 Z M 816.92047,49.997009 800.34871,49.997009 768.63379,128.57001 787.87227,128.57001 793.68191,112.85541 823.58727,112.85541 829.39691,128.57001 848.63538,128.57001 816.92047,49.997009 Z M 817.49191,97.140808 799.77727,97.140808 808.53935,74.283209 808.72983,74.283209 817.49191,97.140808 Z"/>
	<path d="M 874.51231,49.997009 856.60719,49.997009 856.60719,128.57001 874.51231,128.57001 874.51231,49.997009 Z"/>
	<path d="M 873.86933,49.997009 902.82229,93.331208 902.82229,128.57001 920.72741,128.57001 920.72741,93.331208 949.68037,49.997009 928.15613,49.997009 911.77485,75.140369 895.39357,49.997009 873.86933,49.997009 Z"/>
	<path d="M 975.01262,35.615769 980.34606,42.949249 1003.0132,29.80613 994.34634,18.85353 975.01262,35.615769 Z M 988.91766,49.997009 972.3459,49.997009 940.63098,128.57001 959.86946,128.57001 965.6791,112.85541 995.58446,112.85541 1001.3941,128.57001 1020.6326,128.57001 988.91766,49.997009 Z M 989.4891,97.140808 971.77446,97.140808 980.53654,74.283209 980.72702,74.283209 989.4891,97.140808 Z"/>
	<path d="M 1019.0015,65.711609 1037.6686,65.711609 1037.6686,128.57001 1055.5737,128.57001 1055.5737,65.711609 1074.2407,65.711609 1074.2407,49.997009 1019.0015,49.997009 1019.0015,65.711609 Z"/>
	<path d="M 359.83414,259.96567 C 359.83414,276.87905 371.9051,290.00271 389.02902,290.00271 405.66168,290.00271 418.15372,276.87905 418.15372,259.96567 418.15372,243.05229 405.10024,229.99881 389.02902,229.99881 373.09816,229.99881 359.83414,243.05229 359.83414,259.96567 Z M 374.08068,259.96567 C 374.08068,251.33353 378.85292,242.70139 389.02902,242.70139 399.2753,242.70139 403.90718,251.33353 403.90718,259.96567 403.90718,268.59781 399.55602,277.22995 389.02902,277.22995 378.2213,277.22995 374.08068,268.59781 374.08068,259.96567 Z"/>
	<path d="M 476.83813,288.95001 490.03197,288.95001 484.83865,231.05151 470.80265,231.05151 457.95971,264.45719 445.11677,231.05151 431.08077,231.05151 425.88745,288.95001 439.08129,288.95001 441.81831,254.63199 442.16921,254.63199 454.02963,288.59911 461.88979,288.59911 473.75021,254.63199 474.10111,254.63199 476.83813,288.95001 Z"/>
	<path d="M 529.72282,231.05151 517.5115,231.05151 494.14156,288.95001 508.31792,288.95001 512.5989,277.37031 534.63542,277.37031 538.9164,288.95001 553.09276,288.95001 529.72282,231.05151 Z M 530.1439,265.79061 517.09042,265.79061 523.54698,248.94741 523.68734,248.94741 530.1439,265.79061 Z"/>
	<path d="M 560.28261,231.05151 560.28261,288.95001 573.47645,288.95001 573.47645,266.07133 591.16181,288.95001 607.93483,288.95001 588.00371,265.01863 C 595.09189,262.77287 599.86413,256.94793 599.86413,248.24561 599.86413,236.87645 591.72325,231.05151 580.98571,231.05151 L 560.28261,231.05151 Z M 573.47645,256.73739 573.47645,241.57851 575.02041,241.57851 C 580.00319,241.57851 585.96849,241.92941 585.96849,249.15795 585.96849,256.38649 580.00319,256.73739 575.02041,256.73739 L 573.47645,256.73739 Z"/>
	<path d="M 692.48242,288.95001 665.5333,258.49189 688.83306,231.05151 672.83202,231.05151 652.97108,254.70217 652.97108,231.05151 639.77724,231.05151 639.77724,288.95001 652.97108,288.95001 652.97108,264.38701 674.3058,288.95001 692.48242,288.95001 Z"/>
	<path d="M 713.21043,265.72043 731.87831,265.72043 731.87831,288.95001 745.07215,288.95001 745.07215,231.05151 731.87831,231.05151 731.87831,254.14073 713.21043,254.14073 713.21043,231.05151 700.01659,231.05151 700.01659,288.95001 713.21043,288.95001 713.21043,265.72043 Z"/>
	<path d="M 787.87943,231.05151 775.66811,231.05151 752.29817,288.95001 766.47453,288.95001 770.75551,277.37031 792.79203,277.37031 797.07301,288.95001 811.24937,288.95001 787.87943,231.05151 Z M 788.30051,265.79061 775.24703,265.79061 781.70359,248.94741 781.84395,248.94741 788.30051,265.79061 Z"/>
	<path d="M 805.81776,231.05151 827.15248,262.98341 827.15248,288.95001 840.34632,288.95001 840.34632,262.98341 861.68104,231.05151 845.82036,231.05151 833.7494,249.57903 821.67844,231.05151 805.81776,231.05151 Z"/>
	<path d="M 862.49326,231.05151 883.82798,262.98341 883.82798,288.95001 897.02182,288.95001 897.02182,262.98341 918.35654,231.05151 902.49586,231.05151 890.4249,249.57903 878.35394,231.05151 862.49326,231.05151 Z"/>
	<path d="M 938.3389,220.45433 942.26898,225.85819 958.97182,216.17335 952.58544,208.10265 938.3389,220.45433 Z M 948.58518,231.05151 936.37386,231.05151 913.00392,288.95001 927.18028,288.95001 931.46126,277.37031 953.49778,277.37031 957.77876,288.95001 971.95512,288.95001 948.58518,231.05151 Z M 949.00626,265.79061 935.95278,265.79061 942.40934,248.94741 942.5497,248.94741 949.00626,265.79061 Z"/>
	<path d="M 1027.0077,288.95001 1040.2016,288.95001 1035.0083,231.05151 1020.9723,231.05151 1008.1293,264.45719 995.28637,231.05151 981.25037,231.05151 976.05705,288.95001 989.25089,288.95001 991.98791,254.63199 992.33881,254.63199 1004.1992,288.59911 1012.0594,288.59911 1023.9198,254.63199 1024.2707,254.63199 1027.0077,288.95001 Z"/>
	<path d="M 422.5591,500.70319 400.47705,500.70319 400.47705,539.29999 422.5591,539.29999 422.5591,531.58063 409.27245,531.58063 409.27245,523.81448 421.99769,523.81448 421.99769,516.09512 409.27245,516.09512 409.27245,508.42255 422.5591,508.42255 422.5591,500.70319 Z"/>
	<path d="M 432.61543,500.70319 432.61543,539.29999 443.7968,539.29999 C 454.41677,539.29999 463.25895,531.25314 463.25895,519.9782 463.25895,508.75004 454.36999,500.70319 443.7968,500.70319 L 432.61543,500.70319 Z M 441.41082,531.44028 441.41082,508.5629 442.76756,508.5629 C 449.31732,508.5629 453.7618,513.56879 453.7618,520.02498 453.71501,526.48117 449.27053,531.44028 442.76756,531.44028 L 441.41082,531.44028 Z"/>
	<path d="M 497.84033,539.29999 507.5714,539.29999 518.56564,500.70319 508.83457,500.70319 502.23802,527.18293 502.0041,527.18293 494.9865,500.70319 488.34317,500.70319 481.32557,527.18293 481.09165,527.18293 474.49511,500.70319 464.71725,500.70319 475.71149,539.29999 485.48935,539.29999 491.66484,517.639 497.84033,539.29999 Z"/>
	<path d="M 540.98318,500.70319 532.84276,500.70319 517.26369,539.29999 526.71405,539.29999 529.56788,531.58063 544.25806,531.58063 547.11188,539.29999 556.56225,539.29999 540.98318,500.70319 Z M 541.26388,523.86127 532.56206,523.86127 536.86618,512.63311 536.95975,512.63311 541.26388,523.86127 Z"/>
	<path d="M 563.02205,500.70319 563.02205,539.29999 571.81744,539.29999 571.81744,524.0484 583.60701,539.29999 594.78839,539.29999 581.50173,523.34664 C 586.22692,521.84956 589.40823,517.96648 589.40823,512.16527 589.40823,504.58626 583.98128,500.70319 576.82333,500.70319 L 563.02205,500.70319 Z M 571.81744,517.82613 571.81744,507.72079 572.84669,507.72079 C 576.16836,507.72079 580.145,507.95471 580.145,512.77346 580.145,517.59221 576.16836,517.82613 572.84669,517.82613 L 571.81744,517.82613 Z"/>
	<path d="M 601.55667,500.70319 601.55667,539.29999 612.73805,539.29999 C 623.35802,539.29999 632.20019,531.25314 632.20019,519.9782 632.20019,508.75004 623.31123,500.70319 612.73805,500.70319 L 601.55667,500.70319 Z M 610.35207,531.44028 610.35207,508.5629 611.7088,508.5629 C 618.25856,508.5629 622.70304,513.56879 622.70304,520.02498 622.65626,526.48117 618.21178,531.44028 611.7088,531.44028 L 610.35207,531.44028 Z"/>
	<path d="M 681.20489,500.70319 658.88892,500.70319 658.88892,539.29999 667.68431,539.29999 667.68431,523.81448 680.17564,523.81448 680.17564,516.09512 667.68431,516.09512 667.68431,508.42255 681.20489,508.42255 681.20489,500.70319 Z"/>
	<path d="M 699.18306,500.70319 690.38767,500.70319 690.38767,539.29999 699.18306,539.29999 699.18306,500.70319 Z"/>
	<path d="M 705.10779,508.42255 714.27746,508.42255 714.27746,539.29999 723.07285,539.29999 723.07285,508.42255 732.24251,508.42255 732.24251,500.70319 705.10779,500.70319 705.10779,508.42255 Z"/>
	<path d="M 772.83123,500.70319 741.06489,500.70319 741.06489,508.42255 757.43929,508.42255 738.35142,539.29999 771.56806,539.29999 771.56806,531.58063 753.69657,531.58063 772.83123,500.70319 Z"/>
	<path d="M 816.31255,517.68578 798.48784,517.68578 798.48784,524.46946 807.37681,524.46946 C 807.37681,529.19464 803.21303,531.90812 799.00247,531.90812 793.57552,531.90812 789.17783,526.57474 789.17783,520.02498 789.17783,513.33487 793.57552,507.95471 799.00247,507.95471 802.4177,507.95471 805.36509,509.31144 807.61073,512.91381 L 813.36516,506.59797 C 809.99671,502.52776 805.27153,500.00143 798.48784,500.00143 787.63396,500.00143 779.68068,508.93717 779.68068,520.02498 779.68068,531.066 788.1018,540.00175 798.48784,540.00175 806.06685,540.00175 814.20727,535.83797 816.31255,526.06012 L 816.31255,517.68578 Z"/>
	<path d="M 847.23671,500.70319 825.15467,500.70319 825.15467,539.29999 847.23671,539.29999 847.23671,531.58063 833.95006,531.58063 833.95006,523.81448 846.67531,523.81448 846.67531,516.09512 833.95006,516.09512 833.95006,508.42255 847.23671,508.42255 847.23671,500.70319 Z"/>
	<path d="M 857.29306,500.70319 857.29306,539.29999 866.08846,539.29999 866.08846,524.0484 877.87802,539.29999 889.0594,539.29999 875.77274,523.34664 C 880.49793,521.84956 883.67924,517.96648 883.67924,512.16527 883.67924,504.58626 878.2523,500.70319 871.09434,500.70319 L 857.29306,500.70319 Z M 866.08846,517.82613 866.08846,507.72079 867.1177,507.72079 C 870.43937,507.72079 874.41601,507.95471 874.41601,512.77346 874.41601,517.59221 870.43937,517.82613 867.1177,517.82613 L 866.08846,517.82613 Z"/>
	<path d="M 915.43017,500.70319 907.28975,500.70319 891.71068,539.29999 901.16105,539.29999 904.01487,531.58063 918.70505,531.58063 921.55887,539.29999 931.00924,539.29999 915.43017,500.70319 Z M 915.71087,523.86127 907.00905,523.86127 911.31317,512.63311 911.40674,512.63311 915.71087,523.86127 Z"/>
	<path d="M 946.26445,500.70319 937.46906,500.70319 937.46906,539.29999 959.55111,539.29999 959.55111,531.58063 946.26445,531.58063 946.26445,500.70319 Z"/>
	<path d="M 968.87641,500.70319 968.87641,539.29999 980.05778,539.29999 C 990.67775,539.29999 999.51993,531.25314 999.51993,519.9782 999.51993,508.75004 990.63097,500.70319 980.05778,500.70319 L 968.87641,500.70319 Z M 977.6718,531.44028 977.6718,508.5629 979.02853,508.5629 C 985.57829,508.5629 990.02277,513.56879 990.02277,520.02498 989.97599,526.48117 985.53151,531.44028 979.02853,531.44028 L 977.6718,531.44028 Z"/>
	<path d="M 594.74274,455.60187 C 594.74274,456.7921 597.25071,455.85692 597.25071,456.74959 597.25071,457.8973 595.46538,464.7836 595.46538,468.69434 595.46538,472.00996 597.03817,472.69009 598.18589,472.69009 600.82139,472.69009 604.43457,469.79954 604.43457,468.69434 604.43457,468.09922 604.0945,468.09922 603.96698,468.09922 603.28685,468.09922 602.30917,469.96958 599.97123,469.96958 599.80119,469.96958 598.2284,469.88456 598.2284,467.63164 598.2284,466.95151 599.20608,461.42547 599.58865,458.78997 599.8437,457.04714 599.71618,456.282 600.94891,456.282 601.88409,456.282 603.71193,456.49454 604.39206,456.49454 605.1572,456.49454 605.41225,456.23949 605.41225,455.26181 605.41225,454.75171 605.19971,454.45416 604.30704,454.45416 603.83945,454.45416 603.49939,454.49666 601.84158,454.49666 600.43881,454.49666 600.3538,454.45416 600.3538,454.19911 600.3538,453.56149 601.11894,451.56361 601.11894,451.01101 601.11894,450.62844 600.9064,450.50091 600.69386,450.50091 600.01373,450.50091 599.92872,451.05352 598.2284,452.83885 596.35805,454.79422 594.74274,454.75171 594.74274,455.60187 Z"/>
	<path d="M 606.85022,459.59762 C 606.85022,460.19274 607.19028,460.32026 607.36031,460.32026 607.57285,460.32026 607.70038,460.19274 607.8279,460.06521 608.08295,459.76766 608.42301,457.21718 610.16584,457.21718 610.93098,457.21718 611.61111,457.98232 611.61111,460.10772 611.61111,463.29582 609.78327,469.5445 609.78327,471.24482 609.78327,472.26501 610.63343,472.35002 611.05851,472.35002 L 611.27105,472.35002 C 612.80134,472.35002 612.71632,472.35002 613.6515,465.12366 L 613.86404,463.7209 C 614.07658,461.93556 615.13928,456.36702 617.05214,456.36702 618.58242,456.36702 618.41239,458.15235 619.34757,458.15235 620.11271,458.15235 620.19773,456.8346 620.28274,456.53705 620.41027,456.06946 620.75033,455.51686 620.75033,454.96425 620.75033,454.36914 620.28274,453.6465 619.17754,453.6465 616.03194,453.6465 613.90654,458.02483 613.60899,458.02483 613.52397,458.02483 613.48146,457.98232 612.41876,455.2193 612.16372,454.53917 611.73864,453.73152 610.84597,453.73152 610.4634,453.73152 606.85022,454.75171 606.85022,459.59762 Z"/>
	<path d="M 620.44148,467.33408 C 620.44148,470.0971 620.95158,472.81761 624.98984,472.81761 629.0281,472.81761 632.55626,467.71665 632.7688,467.71665 633.06636,467.71665 632.68379,472.47755 635.4043,472.47755 636.55202,472.47755 638.46488,470.52218 639.52758,468.99189 640.08018,468.22675 640.29272,467.58913 640.29272,467.16405 640.29272,466.99402 640.25021,466.69646 639.91015,466.69646 639.1025,466.69646 638.20983,469.45948 636.80706,469.45948 635.99941,469.45948 635.36179,468.05672 635.36179,466.95151 635.36179,465.3362 635.78687,463.38084 636.12694,461.51048 636.467,459.59762 636.72205,457.64226 637.10462,456.06946 637.40218,454.83673 637.95478,453.81654 637.95478,453.13641 637.95478,452.66882 637.74224,452.49879 637.48719,452.49879 636.63703,452.49879 636.12694,454.58168 635.27678,454.58168 633.87401,454.58168 632.98134,454.11409 631.6636,454.11409 630.55839,454.11409 629.70823,454.32663 628.56051,454.87924 626.30759,455.94194 624.35222,457.98232 622.82193,460.40528 621.50418,462.53068 620.44148,464.95363 620.44148,467.33408 Z M 623.41704,467.07903 C 623.41704,466.31389 623.50206,465.54874 623.62958,464.7836 624.01216,462.57318 625.03235,460.66032 626.26508,458.61994 627.54032,456.45203 629.79324,455.17679 631.53607,455.17679 632.42874,455.17679 634.3416,455.47435 634.3416,456.66457 634.3416,456.7921 633.19388,464.61357 632.17369,466.65395 631.79112,467.4191 629.79324,470.47967 626.73267,470.47967 624.94733,470.47967 623.41704,469.20443 623.41704,467.07903 Z"/>
	<path d="M 641.68751,458.53492 C 641.68751,459.00251 641.77253,459.34258 642.07008,459.34258 643.00526,459.34258 643.47285,456.96213 644.7906,456.96213 645.21568,456.96213 645.76828,457.81229 645.76828,459.30007 645.76828,462.57318 643.89793,469.16192 643.89793,470.94726 643.89793,472.17999 644.23799,472.26501 645.38571,472.26501 646.49092,472.26501 646.83098,472.09498 646.9585,471.1598 647.04352,470.56469 646.74596,471.07478 647.80866,465.3362 648.82886,459.85267 648.31876,460.23524 650.1466,457.64226 651.12429,456.23949 651.93194,455.7719 652.90962,455.7719 655.67264,455.7719 655.88518,458.57743 655.88518,459.25756 655.88518,460.83036 654.99252,466.52643 654.99252,469.75704 654.99252,471.24482 655.71515,472.43504 656.56531,472.43504 658.43566,472.43504 662.17637,469.45948 662.17637,467.80167 662.17637,467.54662 662.09135,467.29157 661.7938,467.29157 661.15618,467.29157 660.98614,467.80167 660.47605,468.43929 660.47605,468.43929 659.49836,469.37446 658.77573,469.37446 658.30814,469.37446 657.96808,469.0344 657.96808,467.84418 657.96808,466.3989 658.69071,461.89306 658.69071,458.9175 658.69071,456.23949 658.0956,453.604 655.12004,453.604 653.3347,453.604 651.08178,455.13428 649.93406,456.02695 648.36127,457.21718 648.06371,458.15235 647.80866,458.15235 647.42609,458.15235 648.31876,453.68901 645.8533,453.68901 644.23799,453.68901 641.68751,456.87711 641.68751,458.53492 Z"/>
	<path d="M 663.63825,469.88456 C 663.63825,472.13748 666.69882,472.69009 668.35663,472.69009 673.79766,472.69009 674.98788,468.65183 674.98788,467.12154 674.98788,464.2735 673.37258,463.08328 672.05483,461.5955 671.03464,460.49029 668.6967,458.74746 668.6967,457.13216 668.6967,455.85692 669.33432,454.87924 670.94962,454.87924 672.60743,454.87924 672.77747,457.25968 674.30775,457.25968 674.52029,457.25968 675.92306,457.13216 675.92306,455.81441 675.92306,454.1566 674.26525,453.604 671.96981,453.604 668.65419,453.604 666.18873,455.55936 666.18873,458.4074 666.18873,460.95788 667.80403,462.06309 669.50435,463.80592 671.03464,465.3362 672.4374,466.56894 672.4374,468.56681 672.4374,469.07691 672.13985,471.28732 669.03676,471.28732 666.44377,471.28732 667.16641,468.35427 664.9985,468.35427 664.48841,468.35427 663.63825,468.56681 663.63825,469.88456 Z"/>
	<path d="M 678.73788,468.5243 C 678.73788,472.52006 679.97062,472.52006 680.82078,472.52006 681.62843,472.52006 683.41376,471.6699 684.51897,470.39466 685.53916,469.20443 686.64437,467.75916 686.64437,467.33408 686.64437,466.909 686.43183,466.65395 686.13428,466.65395 685.02907,466.65395 684.60399,469.67202 682.26605,469.67202 681.71344,469.67202 681.58592,469.45948 681.58592,468.01421 681.58592,466.56894 682.09602,463.89093 682.81865,458.87499 684.17891,449.73577 683.45627,451.30856 685.02907,443.06201 685.15659,442.25436 685.45415,441.70176 685.45415,441.10665 685.45415,440.68157 685.24161,440.42652 684.56148,440.42652 683.45627,440.42652 682.5211,440.8516 679.41801,441.06414 678.86541,441.10665 678.78039,441.44671 678.78039,441.65925 678.78039,442.12684 679.16296,442.25436 680.01312,442.25436 680.52322,442.25436 680.60824,442.21185 681.24586,442.21185 681.88348,442.21185 682.30856,442.55192 682.30856,443.06201 682.30856,443.57211 681.67094,447.39783 680.9483,451.98869 680.52322,454.7092 680.31068,457.72727 679.92811,460.40528 679.84309,461.0854 678.73788,466.10135 678.73788,468.5243 Z"/>
	<path d="M 689.26791,467.33408 C 689.26791,470.0971 689.77801,472.81761 693.81627,472.81761 697.85453,472.81761 701.38269,467.71665 701.59523,467.71665 701.89279,467.71665 701.51021,472.47755 704.23073,472.47755 705.37844,472.47755 707.2913,470.52218 708.354,468.99189 708.90661,468.22675 709.11915,467.58913 709.11915,467.16405 709.11915,466.99402 709.07664,466.69646 708.73657,466.69646 707.92892,466.69646 707.03625,469.45948 705.63349,469.45948 704.82584,469.45948 704.18822,468.05672 704.18822,466.95151 704.18822,465.3362 704.6133,463.38084 704.95336,461.51048 705.29343,459.59762 705.54847,457.64226 705.93105,456.06946 706.2286,454.83673 706.78121,453.81654 706.78121,453.13641 706.78121,452.66882 706.56867,452.49879 706.31362,452.49879 705.46346,452.49879 704.95336,454.58168 704.1032,454.58168 702.70044,454.58168 701.80777,454.11409 700.49002,454.11409 699.38481,454.11409 698.53465,454.32663 697.38694,454.87924 695.13401,455.94194 693.17865,457.98232 691.64836,460.40528 690.33061,462.53068 689.26791,464.95363 689.26791,467.33408 Z M 692.24347,467.07903 C 692.24347,466.31389 692.32849,465.54874 692.45601,464.7836 692.83858,462.57318 693.85877,460.66032 695.09151,458.61994 696.36675,456.45203 698.61967,455.17679 700.3625,455.17679 701.25517,455.17679 703.16803,455.47435 703.16803,456.66457 703.16803,456.7921 702.02031,464.61357 701.00012,466.65395 700.61755,467.4191 698.61967,470.47967 695.55909,470.47967 693.77376,470.47967 692.24347,469.20443 692.24347,467.07903 Z"/>
	<path d="M 711.1416,455.60187 C 711.1416,456.7921 713.64957,455.85692 713.64957,456.74959 713.64957,457.8973 711.86423,464.7836 711.86423,468.69434 711.86423,472.00996 713.43703,472.69009 714.58475,472.69009 717.22024,472.69009 720.83342,469.79954 720.83342,468.69434 720.83342,468.09922 720.49336,468.09922 720.36583,468.09922 719.68571,468.09922 718.70802,469.96958 716.37008,469.96958 716.20005,469.96958 714.62725,469.88456 714.62725,467.63164 714.62725,466.95151 715.60494,461.42547 715.98751,458.78997 716.24256,457.04714 716.11503,456.282 717.34777,456.282 718.28294,456.282 720.11079,456.49454 720.79091,456.49454 721.55606,456.49454 721.81111,456.23949 721.81111,455.26181 721.81111,454.75171 721.59857,454.45416 720.7059,454.45416 720.23831,454.45416 719.89825,454.49666 718.24043,454.49666 716.83767,454.49666 716.75265,454.45416 716.75265,454.19911 716.75265,453.56149 717.5178,451.56361 717.5178,451.01101 717.5178,450.62844 717.30526,450.50091 717.09272,450.50091 716.41259,450.50091 716.32757,451.05352 714.62725,452.83885 712.7569,454.79422 711.1416,454.75171 711.1416,455.60187 Z"/>
	<path d="M 723.39054,465.93132 C 723.39054,469.71453 724.70829,472.69009 730.10681,472.69009 733.805,472.69009 737.5032,469.71453 737.5032,468.73684 737.5032,468.4818 737.33317,468.31176 736.9931,468.31176 736.52552,468.31176 734.8252,470.13961 732.40224,470.13961 728.19395,470.13961 726.28109,468.01421 726.28109,464.82611 726.28109,463.7209 726.40861,463.08328 727.00372,463.08328 730.99948,463.04077 733.29491,462.1056 733.67748,461.93556 734.48513,461.5955 737.80076,459.85267 737.80076,456.7921 737.80076,454.92174 736.10044,453.6465 734.10256,453.6465 731.72211,453.6465 729.76674,454.41165 728.19395,455.89943 725.2609,458.61994 723.39054,462.27563 723.39054,465.93132 Z M 726.8762,461.51048 C 726.8762,460.95788 727.85388,458.23737 729.12912,456.91962 730.23433,455.7719 731.55208,454.92174 732.61478,454.92174 733.33742,454.92174 734.8677,455.30432 734.8677,456.91962 734.8677,459.59762 731.38205,462.36064 727.25877,462.36064 726.96122,462.36064 726.8762,461.80804 726.8762,461.51048 Z"/>
	<path d="M 739.85575,466.86649 C 739.85575,470.05459 741.34353,472.52006 744.95671,472.52006 749.16501,472.52006 751.33291,467.75916 751.71549,467.75916 752.3106,467.75916 751.33291,472.52006 754.30847,472.52006 757.07149,472.52006 759.7495,468.22675 759.7495,467.33408 759.7495,467.16405 759.62197,466.95151 759.28191,466.95151 758.60178,466.95151 757.6241,469.587 755.75375,469.587 754.77606,469.587 754.64854,468.69434 754.64854,467.75916 754.64854,466.48392 755.07362,463.80592 755.54121,460.57531 757.92165,443.18954 758.34673,441.82928 758.34673,440.72407 758.34673,440.3415 758.04918,440.00144 757.66661,440.00144 756.51889,440.00144 756.77394,440.08645 754.39349,440.68157 753.20327,440.97912 751.71549,440.80909 751.71549,441.53173 751.71549,441.82928 751.97053,441.99931 752.39561,441.99931 752.43812,441.99931 753.41581,441.95681 753.88339,441.95681 754.52101,441.95681 755.11613,442.38189 755.11613,443.01951 755.11613,443.31706 753.71336,454.49666 753.58584,454.49666 752.39561,454.49666 751.54545,453.94406 750.44025,453.94406 745.38179,453.94406 739.85575,460.27775 739.85575,466.86649 Z M 742.83131,465.67627 C 742.83131,461.21293 746.31697,454.83673 750.22771,454.83673 751.37542,454.83673 753.07574,455.38933 753.07574,456.53705 753.07574,458.23737 752.43812,465.71878 750.7378,467.84418 749.63259,469.24694 747.97478,470.05459 746.44449,470.05459 743.85151,470.05459 742.83131,468.14173 742.83131,465.67627 Z"/>
	<path d="M 771.05796,469.16192 C 771.05796,471.62739 773.73596,472.7326 776.24393,472.7326 782.83267,472.7326 787.84862,465.12366 787.84862,459.34258 787.84862,456.57956 786.36084,453.94406 783.17274,453.94406 778.28432,453.94406 776.28644,457.8973 775.69133,457.8973 775.60631,457.8973 775.47879,457.55724 775.47879,457.25968 775.47879,454.19911 778.1993,441.53173 778.1993,440.76658 778.1993,440.29899 777.85924,440.00144 777.39165,440.00144 777.1366,440.00144 776.37146,440.25649 774.71365,440.46903 772.75828,440.72407 771.56805,440.68157 771.56805,441.53173 771.56805,442.12684 771.90812,442.12684 772.37571,442.12684 773.01333,442.12684 773.48091,442.04182 774.11853,442.04182 774.96869,442.04182 775.18123,442.33938 775.18123,442.55192 775.18123,443.57211 774.92619,445.05989 774.54361,446.88773 773.90599,450.03332 773.3959,454.1566 772.63075,458.57743 772.03564,462.02058 771.05796,466.44141 771.05796,469.16192 Z M 773.86349,468.65183 C 773.86349,468.22675 774.33107,463.67839 775.56381,460.32026 776.92406,456.62206 779.68708,456.19698 780.70727,456.19698 783.04521,456.19698 784.87306,458.15235 784.87306,460.5328 784.87306,465.42122 780.96232,471.54237 777.1366,471.54237 774.50111,471.54237 773.86349,470.0971 773.86349,468.65183 Z"/>
	<path d="M 789.4938,477.49349 C 789.4938,479.44886 791.19412,480.00146 793.02196,480.00146 797.01772,480.00146 799.73823,475.15555 801.7361,470.0971 804.24408,463.76341 805.26427,457.8973 805.26427,455.98444 805.26427,454.6667 804.54163,453.73152 803.60646,453.73152 802.58626,453.73152 802.16118,454.53917 802.16118,455.30432 802.16118,456.45203 803.22388,457.30219 803.22388,458.53492 803.22388,461.38296 802.28871,465.93132 801.6936,465.93132 801.22601,465.93132 797.18775,453.85904 793.06447,453.85904 790.47148,453.85904 789.62132,457.55724 789.62132,459.34258 789.62132,460.06521 789.79136,460.27775 790.0464,460.27775 791.32164,460.27775 790.42898,457.08965 792.89444,457.08965 795.14736,457.08965 799.82324,468.05672 799.82324,470.43716 799.82324,472.05247 797.01772,477.49349 794.55225,477.49349 792.59688,477.49349 792.55438,476.09073 790.85406,476.09073 790.13142,476.09073 789.4938,476.77086 789.4938,477.49349 Z"/>
	<path d="M 499.46907,680.70319 477.38703,680.70319 477.38703,719.29999 499.46907,719.29999 499.46907,711.58063 486.18242,711.58063 486.18242,703.81448 498.90767,703.81448 498.90767,696.09512 486.18242,696.09512 486.18242,688.42255 499.46907,688.42255 499.46907,680.70319 Z"/>
	<path d="M 509.5254,680.70319 509.5254,719.29999 520.70678,719.29999 C 531.32675,719.29999 540.16892,711.25314 540.16892,699.9782 540.16892,688.75004 531.27996,680.70319 520.70678,680.70319 L 509.5254,680.70319 Z M 518.32079,711.44028 518.32079,688.5629 519.67753,688.5629 C 526.22729,688.5629 530.67177,693.56879 530.67177,700.02498 530.62499,706.48117 526.18051,711.44028 519.67753,711.44028 L 518.32079,711.44028 Z"/>
	<path d="M 580.97184,719.29999 589.76723,719.29999 586.30521,680.70319 576.94841,680.70319 568.38694,702.97237 559.82547,680.70319 550.46867,680.70319 547.00665,719.29999 555.80205,719.29999 557.62662,696.42261 557.86054,696.42261 565.76704,719.06607 571.00685,719.06607 578.91334,696.42261 579.14726,696.42261 580.97184,719.29999 Z"/>
	<path d="M 627.95171,680.70319 619.15632,680.70319 619.15632,703.01916 C 619.15632,709.47535 617.19139,711.34671 612.88726,711.34671 608.58313,711.34671 606.6182,709.47535 606.6182,703.01916 L 606.6182,680.70319 597.82281,680.70319 597.82281,705.59228 C 597.82281,715.13621 603.06262,720.00175 612.88726,720.00175 622.7119,720.00175 627.95171,715.13621 627.95171,705.59228 L 627.95171,680.70319 Z"/>
	<path d="M 646.89992,695.34658 646.99349,695.34658 662.33864,719.29999 671.13403,719.29999 671.13403,680.70319 662.33864,680.70319 662.33864,704.6566 662.24507,704.6566 646.89992,680.70319 638.10453,680.70319 638.10453,719.29999 646.89992,719.29999 646.89992,695.34658 Z"/>
	<path d="M 681.75615,680.70319 681.75615,719.29999 692.93753,719.29999 C 703.5575,719.29999 712.39967,711.25314 712.39967,699.9782 712.39967,688.75004 703.51071,680.70319 692.93753,680.70319 L 681.75615,680.70319 Z M 690.55154,711.44028 690.55154,688.5629 691.90828,688.5629 C 698.45804,688.5629 702.90252,693.56879 702.90252,700.02498 702.85574,706.48117 698.41126,711.44028 691.90828,711.44028 L 690.55154,711.44028 Z"/>
	<path d="M 739.08841,680.70319 739.08841,719.29999 750.26979,719.29999 C 760.88976,719.29999 769.73193,711.25314 769.73193,699.9782 769.73193,688.75004 760.84297,680.70319 750.26979,680.70319 L 739.08841,680.70319 Z M 747.8838,711.44028 747.8838,688.5629 749.24054,688.5629 C 755.7903,688.5629 760.23478,693.56879 760.23478,700.02498 760.188,706.48117 755.74352,711.44028 749.24054,711.44028 L 747.8838,711.44028 Z"/>
	<path d="M 808.2892,680.70319 799.49381,680.70319 799.49381,703.01916 C 799.49381,709.47535 797.52888,711.34671 793.22475,711.34671 788.92063,711.34671 786.9557,709.47535 786.9557,703.01916 L 786.9557,680.70319 778.16031,680.70319 778.16031,705.59228 C 778.16031,715.13621 783.40011,720.00175 793.22475,720.00175 803.04939,720.00175 808.2892,715.13621 808.2892,705.59228 L 808.2892,680.70319 Z"/>
	<path d="M 827.23741,680.70319 818.44202,680.70319 818.44202,719.29999 840.52407,719.29999 840.52407,711.58063 827.23741,711.58063 827.23741,680.70319 Z"/>
	<path d="M 870.18291,680.70319 862.0425,680.70319 846.46342,719.29999 855.91379,719.29999 858.76762,711.58063 873.45779,711.58063 876.31162,719.29999 885.76198,719.29999 870.18291,680.70319 Z M 870.46362,703.86127 861.76179,703.86127 866.06592,692.63311 866.15949,692.63311 870.46362,703.86127 Z"/>
	<path d="M 911.29794,711.34671 C 902.45577,711.34671 898.5727,705.17122 898.5727,699.9782 898.5727,694.83196 902.45577,688.65647 911.29794,688.65647 915.78921,688.65647 918.87695,691.04245 918.87695,691.04245 L 922.61967,683.55701 C 922.61967,683.55701 918.31554,680.00143 909.94121,680.00143 898.99375,680.00143 889.02876,688.98396 889.02876,700.07176 889.02876,711.11279 899.04054,720.00175 909.94121,720.00175 918.31554,720.00175 922.61967,716.44616 922.61967,716.44616 L 918.87695,708.96072 C 918.87695,708.96072 915.78921,711.34671 911.29794,711.34671 Z"/>
	<path d="M 594.38019,635.34682 C 594.38019,635.7719 594.72025,635.85692 594.9753,635.85692 595.31537,635.85692 595.99549,635.89943 596.88816,635.89943 597.65331,635.89943 597.90835,636.06946 597.90835,636.7921 597.90835,639.21505 595.99549,645.8463 595.99549,649.07691 595.99549,650.90475 596.29305,652.60507 597.56829,652.60507 599.14109,652.60507 601.47903,650.0971 601.47903,650.0971 601.94661,649.587 602.71176,648.14173 602.71176,647.63164 602.71176,647.33408 602.54173,647.16405 602.28668,647.16405 601.69157,647.16405 601.09645,649.37446 599.65118,649.37446 599.2261,649.37446 598.80102,648.82186 598.80102,648.22675 598.80102,647.71665 598.80102,647.80167 600.07626,639.76766 600.41633,637.59975 601.22398,635.94194 601.22398,634.83673 601.22398,634.53917 600.92642,634.36914 600.62887,634.36914 598.20591,634.36914 597.48327,634.75171 595.78295,634.75171 L 595.35787,634.75171 C 594.89029,634.75171 594.38019,634.79422 594.38019,635.34682 Z M 598.88604,626.97275 C 598.88604,627.39783 600.03375,629.22567 600.7989,629.22567 601.18147,629.22567 602.66925,627.82291 602.66925,626.97275 602.66925,626.20761 601.8616,624.71983 601.01144,624.71983 600.24629,624.71983 598.88604,626.59018 598.88604,626.97275 Z"/>
	<path d="M 606.1124,648.5243 C 606.1124,652.52006 607.34513,652.52006 608.19529,652.52006 609.00294,652.52006 610.78828,651.6699 611.89349,650.39466 612.91368,649.20443 614.01889,647.75916 614.01889,647.33408 614.01889,646.909 613.80635,646.65395 613.50879,646.65395 612.40358,646.65395 611.9785,649.67202 609.64056,649.67202 609.08796,649.67202 608.96043,649.45948 608.96043,648.01421 608.96043,646.56894 609.47053,643.89093 610.19317,638.87499 611.55342,629.73577 610.83079,631.30856 612.40358,623.06201 612.53111,622.25436 612.82866,621.70176 612.82866,621.10665 612.82866,620.68157 612.61612,620.42652 611.93599,620.42652 610.83079,620.42652 609.89561,620.8516 606.79253,621.06414 606.23992,621.10665 606.15491,621.44671 606.15491,621.65925 606.15491,622.12684 606.53748,622.25436 607.38764,622.25436 607.89773,622.25436 607.98275,622.21185 608.62037,622.21185 609.25799,622.21185 609.68307,622.55192 609.68307,623.06201 609.68307,623.57211 609.04545,627.39783 608.32281,631.98869 607.89773,634.7092 607.68519,637.72727 607.30262,640.40528 607.21761,641.0854 606.1124,646.10135 606.1124,648.5243 Z"/>
	<path d="M 617.23754,648.5243 C 617.23754,652.52006 618.47027,652.52006 619.32043,652.52006 620.12808,652.52006 621.91342,651.6699 623.01863,650.39466 624.03882,649.20443 625.14403,647.75916 625.14403,647.33408 625.14403,646.909 624.93149,646.65395 624.63393,646.65395 623.52872,646.65395 623.10364,649.67202 620.7657,649.67202 620.2131,649.67202 620.08557,649.45948 620.08557,648.01421 620.08557,646.56894 620.59567,643.89093 621.31831,638.87499 622.67856,629.73577 621.95593,631.30856 623.52872,623.06201 623.65625,622.25436 623.9538,621.70176 623.9538,621.10665 623.9538,620.68157 623.74126,620.42652 623.06113,620.42652 621.95593,620.42652 621.02075,620.8516 617.91767,621.06414 617.36506,621.10665 617.28005,621.44671 617.28005,621.65925 617.28005,622.12684 617.66262,622.25436 618.51278,622.25436 619.02287,622.25436 619.10789,622.21185 619.74551,622.21185 620.38313,622.21185 620.80821,622.55192 620.80821,623.06201 620.80821,623.57211 620.17059,627.39783 619.44795,631.98869 619.02287,634.7092 618.81033,637.72727 618.42776,640.40528 618.34275,641.0854 617.23754,646.10135 617.23754,648.5243 Z"/>
	<path d="M 627.0084,639.68264 C 627.0084,639.9802 627.17843,640.23524 627.43348,640.23524 627.64602,640.23524 627.90107,640.06521 628.0711,639.64013 628.66621,638.27988 629.60139,637.17467 629.98396,637.17467 630.53657,637.17467 630.83412,637.59975 630.83412,638.06734 630.83412,640.66032 628.92126,645.3362 628.92126,649.92707 628.92126,651.1598 629.21882,652.64758 630.36653,652.64758 633.46962,652.64758 636.61521,648.77935 638.52807,646.05884 639.80331,644.2735 640.01585,643.33833 640.2709,643.33833 640.39842,643.33833 640.48344,643.50836 640.48344,643.80592 640.48344,644.18849 639.71829,647.54662 639.71829,650.26713 639.71829,651.58488 640.05836,652.56256 640.99353,652.56256 644.98929,652.56256 647.62478,648.22675 647.62478,647.20656 647.62478,646.82398 647.58227,646.31389 647.02967,646.31389 646.137,646.31389 645.96697,649.45948 643.37398,649.45948 642.99141,649.45948 642.43881,649.37446 642.43881,648.43929 642.43881,646.27138 645.03179,635.98444 645.03179,634.83673 645.03179,634.19911 644.30916,633.90155 643.62903,633.90155 643.20395,633.90155 642.52382,634.02908 642.3963,634.58168 641.41861,638.32238 640.22839,642.23312 637.46537,645.59125 635.46749,647.9717 633.97971,649.96958 632.61946,649.96958 632.3219,649.96958 631.85431,649.5445 631.85431,648.82186 631.85431,645.59125 633.42711,640.83036 633.42711,637.08965 633.42711,636.57956 633.34209,633.98657 631.81181,633.98657 628.96377,633.98657 627.0084,637.8973 627.0084,639.68264 Z"/>
	<path d="M 649.12916,649.88456 C 649.12916,652.13748 652.18974,652.69009 653.84755,652.69009 659.28857,652.69009 660.4788,648.65183 660.4788,647.12154 660.4788,644.2735 658.86349,643.08328 657.54575,641.5955 656.52555,640.49029 654.18761,638.74746 654.18761,637.13216 654.18761,635.85692 654.82523,634.87924 656.44054,634.87924 658.09835,634.87924 658.26838,637.25968 659.79867,637.25968 660.01121,637.25968 661.41397,637.13216 661.41397,635.81441 661.41397,634.1566 659.75616,633.604 657.46073,633.604 654.14511,633.604 651.67964,635.55936 651.67964,638.4074 651.67964,640.95788 653.29495,642.06309 654.99527,643.80592 656.52555,645.3362 657.92832,646.56894 657.92832,648.56681 657.92832,649.07691 657.63076,651.28732 654.52768,651.28732 651.93469,651.28732 652.65733,648.35427 650.48942,648.35427 649.97932,648.35427 649.12916,648.56681 649.12916,649.88456 Z"/>
	<path d="M 663.92128,635.60187 C 663.92128,636.7921 666.42926,635.85692 666.42926,636.74959 666.42926,637.8973 664.64392,644.7836 664.64392,648.69434 664.64392,652.00996 666.21672,652.69009 667.36443,652.69009 669.99993,652.69009 673.61311,649.79954 673.61311,648.69434 673.61311,648.09922 673.27304,648.09922 673.14552,648.09922 672.46539,648.09922 671.48771,649.96958 669.14977,649.96958 668.97974,649.96958 667.40694,649.88456 667.40694,647.63164 667.40694,646.95151 668.38462,641.42547 668.7672,638.78997 669.02224,637.04714 668.89472,636.282 670.12745,636.282 671.06263,636.282 672.89047,636.49454 673.5706,636.49454 674.33574,636.49454 674.59079,636.23949 674.59079,635.26181 674.59079,634.75171 674.37825,634.45416 673.48558,634.45416 673.018,634.45416 672.67793,634.49666 671.02012,634.49666 669.61736,634.49666 669.53234,634.45416 669.53234,634.19911 669.53234,633.56149 670.29748,631.56361 670.29748,631.01101 670.29748,630.62844 670.08494,630.50091 669.8724,630.50091 669.19228,630.50091 669.10726,631.05352 667.40694,632.83885 665.53659,634.79422 663.92128,634.75171 663.92128,635.60187 Z"/>
	<path d="M 676.02876,639.59762 C 676.02876,640.19274 676.36882,640.32026 676.53885,640.32026 676.75139,640.32026 676.87892,640.19274 677.00644,640.06521 677.26149,639.76766 677.60155,637.21718 679.34438,637.21718 680.10952,637.21718 680.78965,637.98232 680.78965,640.10772 680.78965,643.29582 678.96181,649.5445 678.96181,651.24482 678.96181,652.26501 679.81197,652.35002 680.23705,652.35002 L 680.44959,652.35002 C 681.97988,652.35002 681.89486,652.35002 682.83004,645.12366 L 683.04258,643.7209 C 683.25512,641.93556 684.31782,636.36702 686.23068,636.36702 687.76096,636.36702 687.59093,638.15235 688.52611,638.15235 689.29125,638.15235 689.37627,636.8346 689.46128,636.53705 689.58881,636.06946 689.92887,635.51686 689.92887,634.96425 689.92887,634.36914 689.46128,633.6465 688.35608,633.6465 685.21048,633.6465 683.08508,638.02483 682.78753,638.02483 682.70251,638.02483 682.66,637.98232 681.5973,635.2193 681.34226,634.53917 680.91718,633.73152 680.02451,633.73152 679.64194,633.73152 676.02876,634.75171 676.02876,639.59762 Z"/>
	<path d="M 689.62002,647.33408 C 689.62002,650.0971 690.13012,652.81761 694.16838,652.81761 698.20664,652.81761 701.7348,647.71665 701.94734,647.71665 702.2449,647.71665 701.86233,652.47755 704.58284,652.47755 705.73055,652.47755 707.64341,650.52218 708.70611,648.99189 709.25872,648.22675 709.47126,647.58913 709.47126,647.16405 709.47126,646.99402 709.42875,646.69646 709.08869,646.69646 708.28103,646.69646 707.38837,649.45948 705.9856,649.45948 705.17795,649.45948 704.54033,648.05672 704.54033,646.95151 704.54033,645.3362 704.96541,643.38084 705.30547,641.51048 705.64554,639.59762 705.90059,637.64226 706.28316,636.06946 706.58071,634.83673 707.13332,633.81654 707.13332,633.13641 707.13332,632.66882 706.92078,632.49879 706.66573,632.49879 705.81557,632.49879 705.30547,634.58168 704.45531,634.58168 703.05255,634.58168 702.15988,634.11409 700.84213,634.11409 699.73693,634.11409 698.88677,634.32663 697.73905,634.87924 695.48613,635.94194 693.53076,637.98232 692.00047,640.40528 690.68272,642.53068 689.62002,644.95363 689.62002,647.33408 Z M 692.59558,647.07903 C 692.59558,646.31389 692.6806,645.54874 692.80812,644.7836 693.19069,642.57318 694.21089,640.66032 695.44362,638.61994 696.71886,636.45203 698.97178,635.17679 700.71461,635.17679 701.60728,635.17679 703.52014,635.47435 703.52014,636.66457 703.52014,636.7921 702.37242,644.61357 701.35223,646.65395 700.96966,647.4191 698.97178,650.47967 695.91121,650.47967 694.12587,650.47967 692.59558,649.20443 692.59558,647.07903 Z"/>
	<path d="M 711.49371,635.60187 C 711.49371,636.7921 714.00168,635.85692 714.00168,636.74959 714.00168,637.8973 712.21635,644.7836 712.21635,648.69434 712.21635,652.00996 713.78914,652.69009 714.93686,652.69009 717.57235,652.69009 721.18553,649.79954 721.18553,648.69434 721.18553,648.09922 720.84547,648.09922 720.71795,648.09922 720.03782,648.09922 719.06013,649.96958 716.72219,649.96958 716.55216,649.96958 714.97937,649.88456 714.97937,647.63164 714.97937,646.95151 715.95705,641.42547 716.33962,638.78997 716.59467,637.04714 716.46715,636.282 717.69988,636.282 718.63505,636.282 720.4629,636.49454 721.14303,636.49454 721.90817,636.49454 722.16322,636.23949 722.16322,635.26181 722.16322,634.75171 721.95068,634.45416 721.05801,634.45416 720.59042,634.45416 720.25036,634.49666 718.59255,634.49666 717.18978,634.49666 717.10477,634.45416 717.10477,634.19911 717.10477,633.56149 717.86991,631.56361 717.86991,631.01101 717.86991,630.62844 717.65737,630.50091 717.44483,630.50091 716.7647,630.50091 716.67969,631.05352 714.97937,632.83885 713.10901,634.79422 711.49371,634.75171 711.49371,635.60187 Z"/>
	<path d="M 723.74266,645.93132 C 723.74266,649.71453 725.0604,652.69009 730.45892,652.69009 734.15712,652.69009 737.85531,649.71453 737.85531,648.73684 737.85531,648.4818 737.68528,648.31176 737.34522,648.31176 736.87763,648.31176 735.17731,650.13961 732.75435,650.13961 728.54606,650.13961 726.6332,648.01421 726.6332,644.82611 726.6332,643.7209 726.76072,643.08328 727.35584,643.08328 731.35159,643.04077 733.64702,642.1056 734.02959,641.93556 734.83724,641.5955 738.15287,639.85267 738.15287,636.7921 738.15287,634.92174 736.45255,633.6465 734.45467,633.6465 732.07422,633.6465 730.11886,634.41165 728.54606,635.89943 725.61301,638.61994 723.74266,642.27563 723.74266,645.93132 Z M 727.22831,641.51048 C 727.22831,640.95788 728.206,638.23737 729.48124,636.91962 730.58644,635.7719 731.90419,634.92174 732.96689,634.92174 733.68953,634.92174 735.21982,635.30432 735.21982,636.91962 735.21982,639.59762 731.73416,642.36064 727.61088,642.36064 727.31333,642.36064 727.22831,641.80804 727.22831,641.51048 Z"/>
	<path d="M 740.20787,646.86649 C 740.20787,650.05459 741.69565,652.52006 745.30883,652.52006 749.51712,652.52006 751.68503,647.75916 752.0676,647.75916 752.66271,647.75916 751.68503,652.52006 754.66059,652.52006 757.42361,652.52006 760.10161,648.22675 760.10161,647.33408 760.10161,647.16405 759.97409,646.95151 759.63402,646.95151 758.95389,646.95151 757.97621,649.587 756.10586,649.587 755.12817,649.587 755.00065,648.69434 755.00065,647.75916 755.00065,646.48392 755.42573,643.80592 755.89332,640.57531 758.27377,623.18954 758.69885,621.82928 758.69885,620.72407 758.69885,620.3415 758.40129,620.00144 758.01872,620.00144 756.871,620.00144 757.12605,620.08645 754.7456,620.68157 753.55538,620.97912 752.0676,620.80909 752.0676,621.53173 752.0676,621.82928 752.32265,621.99931 752.74773,621.99931 752.79023,621.99931 753.76792,621.95681 754.23551,621.95681 754.87313,621.95681 755.46824,622.38189 755.46824,623.01951 755.46824,623.31706 754.06547,634.49666 753.93795,634.49666 752.74773,634.49666 751.89757,633.94406 750.79236,633.94406 745.73391,633.94406 740.20787,640.27775 740.20787,646.86649 Z M 743.18343,645.67627 C 743.18343,641.21293 746.66908,634.83673 750.57982,634.83673 751.72753,634.83673 753.42785,635.38933 753.42785,636.53705 753.42785,638.23737 752.79023,645.71878 751.08991,647.84418 749.98471,649.24694 748.32689,650.05459 746.79661,650.05459 744.20362,650.05459 743.18343,648.14173 743.18343,645.67627 Z"/>
	<path d="M 771.41007,649.16192 C 771.41007,651.62739 774.08807,652.7326 776.59605,652.7326 783.18479,652.7326 788.20073,645.12366 788.20073,639.34258 788.20073,636.57956 786.71295,633.94406 783.52485,633.94406 778.63643,633.94406 776.63855,637.8973 776.04344,637.8973 775.95843,637.8973 775.8309,637.55724 775.8309,637.25968 775.8309,634.19911 778.55141,621.53173 778.55141,620.76658 778.55141,620.29899 778.21135,620.00144 777.74376,620.00144 777.48871,620.00144 776.72357,620.25649 775.06576,620.46903 773.11039,620.72407 771.92017,620.68157 771.92017,621.53173 771.92017,622.12684 772.26023,622.12684 772.72782,622.12684 773.36544,622.12684 773.83303,622.04182 774.47065,622.04182 775.32081,622.04182 775.53335,622.33938 775.53335,622.55192 775.53335,623.57211 775.2783,625.05989 774.89573,626.88773 774.25811,630.03332 773.74801,634.1566 772.98287,638.57743 772.38775,642.02058 771.41007,646.44141 771.41007,649.16192 Z M 774.2156,648.65183 C 774.2156,648.22675 774.68319,643.67839 775.91592,640.32026 777.27617,636.62206 780.03919,636.19698 781.05939,636.19698 783.39733,636.19698 785.22517,638.15235 785.22517,640.5328 785.22517,645.42122 781.31443,651.54237 777.48871,651.54237 774.85322,651.54237 774.2156,650.0971 774.2156,648.65183 Z"/>
	<path d="M 789.84591,657.49349 C 789.84591,659.44886 791.54623,660.00146 793.37408,660.00146 797.36983,660.00146 800.09034,655.15555 802.08821,650.0971 804.59619,643.76341 805.61638,637.8973 805.61638,635.98444 805.61638,634.6667 804.89374,633.73152 803.95857,633.73152 802.93837,633.73152 802.51329,634.53917 802.51329,635.30432 802.51329,636.45203 803.57599,637.30219 803.57599,638.53492 803.57599,641.38296 802.64082,645.93132 802.04571,645.93132 801.57812,645.93132 797.53986,633.85904 793.41658,633.85904 790.8236,633.85904 789.97344,637.55724 789.97344,639.34258 789.97344,640.06521 790.14347,640.27775 790.39852,640.27775 791.67376,640.27775 790.78109,637.08965 793.24655,637.08965 795.49948,637.08965 800.17535,648.05672 800.17535,650.43716 800.17535,652.05247 797.36983,657.49349 794.90436,657.49349 792.949,657.49349 792.90649,656.09073 791.20617,656.09073 790.48353,656.09073 789.84591,656.77086 789.84591,657.49349 Z"/>
</svg>
